<?xml version="1.0" encoding="UTF-8"?>
<svg width="120px" height="120px" viewBox="0 0 120 120" version="1.1" xmlns="http://www.w3.org/2000/svg" xmlns:xlink="http://www.w3.org/1999/xlink">
    <!-- Generator: Sketch 52.5 (67469) - http://www.bohemiancoding.com/sketch -->
    <title>Logo_red</title>
    <desc>Created with Sketch.</desc>
    <defs>
        <path d="M49.4422529,8.92422989 L49.4422529,21.9768276 C49.4422529,21.9768276 40.7858621,7.03393103 40.3904138,6.36082759 C34.8934023,-2.99531034 24.5135862,0.869425287 24.5121839,8.92422989 L24.5121839,30.3205057 C24.5149885,31.0973793 23.9316322,31.776092 23.0804368,31.776092 L14.9330805,31.776092 C9.89321839,31.776092 5.81112644,27.6841839 5.81112644,22.635908 C5.81112644,17.5834253 9.89321839,13.4929195 14.9330805,13.4929195 L21.8548276,13.4929195 L21.8548276,8.31282759 L14.8755862,8.31282759 C6.99606897,8.31282759 0.583356322,14.7367586 0.583356322,22.635908 C0.583356322,30.5322529 6.99606897,36.9561839 14.8755862,36.9561839 L28.3124138,36.9561839 C29.064046,36.9561839 29.6698391,36.2157701 29.6698391,35.6029655 L29.6698391,9.07567816 C29.6698391,7.61167816 30.5855402,6.37765517 31.9457701,6.01025287 C33.1068736,5.68912644 34.7349425,6.01025287 35.8245287,7.86549425 C35.8750115,7.95103448 39.176023,13.6569885 44.2074713,22.3456322 C48.1563448,29.1692184 52.2412414,36.2269885 52.3155632,36.3517931 C52.7362529,37.0711724 53.3168046,37.4105287 53.867908,37.2618851 C54.2128736,37.1665287 54.6223448,36.829977 54.6223448,36.1933333 L54.6223448,9.07567816 C54.6223448,7.61027586 55.5324368,6.37625287 56.8912644,6.00744828 C58.0425517,5.69193103 59.6650115,6.01445977 60.7531954,7.86549425 C60.8008736,7.94542529 63.7204598,12.9894943 68.521931,21.2854943 C72.768092,28.6251264 77.1586897,36.2115632 77.2414253,36.3517931 C77.6649195,37.0711724 78.244069,37.4105287 78.7965747,37.2618851 C79.1415402,37.1665287 79.5496092,36.829977 79.5496092,36.1933333 L79.5496092,1.06013793 L74.3695172,1.06013793 L74.3695172,21.9768276 C74.3695172,21.9768276 65.715931,7.03393103 65.3176782,6.36082759 C63.0543678,2.50871264 59.9637011,0.897471264 57.110023,0.897471264 C53.0335402,0.897471264 49.4422529,4.18586207 49.4422529,8.92422989 Z" id="path-1"></path>
        <path d="M88.628092,0.06013793 L88.628092,35.1947356 C88.628092,36.6587356 87.7123908,37.8885517 86.3507586,38.2615632 C86.1011494,38.3288736 85.8291034,38.3667356 85.5444368,38.3667356 C84.5109425,38.3667356 83.326,37.8577011 82.472,36.4007126 C82.4257241,36.3235862 78.9858851,30.3834483 73.7454943,21.3274023 C69.9634943,14.7954943 66.0552874,8.03921839 65.9823678,7.91581609 C65.5602759,7.19924138 64.9853333,6.85427586 64.444046,7.00432184 C64.1004828,7.09967816 63.6994253,7.43622989 63.6994253,8.07567816 L63.6994253,35.1947356 C63.6994253,36.6587356 62.7837241,37.8885517 61.4234943,38.2615632 C60.2623908,38.5784828 58.6315172,38.2573563 57.5447356,36.4007126 C57.4998621,36.3249885 54.3012184,30.8041379 49.4310345,22.3875402 C45.3503448,15.3367816 41.1308276,8.04482759 41.0537011,7.91581609 C40.6316092,7.19783908 40.0496552,6.85427586 39.499954,7.00572414 C39.1521839,7.10248276 38.7483218,7.43763218 38.7483218,8.07567816 L38.7469195,34.6015632 C38.7469195,36.4287586 37.1468966,38.0273793 35.323908,38.0273793 L21.8870805,38.0273793 C12.866092,38.0273793 5.52786207,30.6751264 5.52786207,21.6345057 C5.52786207,12.5952874 12.866092,5.24022989 21.8870805,5.24022989 L28.8663218,5.24022989 L28.8663218,0.06013793 L21.8926897,0.06013793 C10.0054023,0.06013793 0.366,9.7177701 0.366,21.6345057 C0.366,33.5484368 10.0054023,43.2102759 21.8926897,43.2102759 L35.4613333,43.2102759 C40.6175862,43.2116782 43.934023,40.1827126 43.9284138,34.5945517 L43.9284138,22.2907816 C43.9284138,22.2907816 52.5805977,37.2308736 52.9802529,37.9109885 C58.4758621,47.2643218 68.8556782,43.3967816 68.8556782,35.3461839 L68.8556782,22.2907816 C68.8556782,22.2907816 77.5106667,37.2308736 77.9089195,37.9109885 C83.4017241,47.2643218 93.7843448,43.3967816 93.7857471,35.3461839 L93.7857471,0.06013793 L88.628092,0.06013793 Z" id="path-3"></path>
    </defs>
    <g id="Page-1" stroke="none" stroke-width="1" fill="none" fill-rule="evenodd">
        <g id="Logo_red">
            <polygon id="path-1" fill="#CC0000" points="0 0 120 0 120 120 0 120"></polygon>
            <g id="CNN" transform="translate(13.000000, 37.000000)">
                <g id="Fill-56-Clipped" transform="translate(7.011494, 0.304299)">
                    <mask id="mask-2" fill="white">
                        <use xlink:href="#path-1"></use>
                    </mask>
                    <g id="path-3"></g>
                    <polygon id="Fill-56" fill="#FFFFFF" mask="url(#mask-2)" points="-11.4203218 49.2992184 91.5532874 49.2992184 91.5532874 -11.1062069 -11.4203218 -11.1062069"></polygon>
                </g>
                <g id="Fill-59-Clipped" transform="translate(0.000000, 1.304299)">
                    <mask id="mask-4" fill="white">
                        <use xlink:href="#path-3"></use>
                    </mask>
                    <use id="path-5" fill="#D8D8D8" xlink:href="#path-3"></use>
                    <polygon id="Fill-59" fill="#FFFFFF" mask="url(#mask-4)" points="-11.6376782 55.3738161 105.788023 55.3738161 105.788023 -11.9435402 -11.6376782 -11.9435402"></polygon>
                </g>
            </g>
        </g>
    </g>
</svg>